<svg id="레이어_1" data-name="레이어 1" xmlns="http://www.w3.org/2000/svg" xmlns:xlink="http://www.w3.org/1999/xlink" viewBox="0 0 1700.79 566.93"><defs><style>.cls-1{fill:#7a6636;}.cls-2{fill:url(#무제_그라디언트_47);}.cls-3{fill:url(#무제_그라디언트_59);}.cls-4{fill:url(#무제_그라디언트_46);}.cls-5{fill:#ccad56;}</style><linearGradient id="무제_그라디언트_47" x1="59.15" y1="274.25" x2="1218.09" y2="274.25" gradientUnits="userSpaceOnUse"><stop offset="0.16" stop-color="#ceb15e"/><stop offset="0.28" stop-color="#e2c98a"/><stop offset="0.41" stop-color="#ccad56"/><stop offset="0.75" stop-color="#dbc079"/><stop offset="0.9" stop-color="#ccad56"/></linearGradient><linearGradient id="무제_그라디언트_59" x1="108.01" y1="240.73" x2="1115.72" y2="240.73" gradientUnits="userSpaceOnUse"><stop offset="0.16" stop-color="#a58a47"/><stop offset="0.28" stop-color="#e2c98a"/><stop offset="0.41" stop-color="#a58a47"/><stop offset="0.75" stop-color="#dbc079"/><stop offset="0.9" stop-color="#a58a47"/></linearGradient><linearGradient id="무제_그라디언트_46" x1="1148.95" y1="144.63" x2="1597.97" y2="403.87" xlink:href="#무제_그라디언트_47"/></defs><path class="cls-1" d="M1209,227.22,95.63,284H72.89Q61.46,307,50,330l64.11,28.11h35.22l21.28-25.29h51.19l14.87,17.69h44.65l2.17,0,6.33-12.27h49.73L349,318.81H400.2l19.08,39.34h38.43l32.89-24.89H630.07L663,358.15h51.39L763.26,313H877.62l48.91,45.13H1209Z"/><path class="cls-1" d="M1365.57,54.15c-146.75,0-265.72,106.79-265.72,238.53s119,238.54,265.72,238.54,265.71-106.8,265.71-238.54S1512.32,54.15,1365.57,54.15Zm16.08,373.93q-4.08.19-8.19.19h0v-308c94.12,0,171.57,69.53,171.57,154C1545,356.28,1472,424.19,1381.65,428.08Z"/><path class="cls-1" d="M1373.46,428.27q4.11,0,8.19-.19c-2.72.12-5.45.19-8.19.19Z"/><path class="cls-1" d="M1545,274.25c0-84.5-77.45-154-171.57-154v308h0V140.86c87.82,0,160.08,64.87,160.08,143.7,0,76.37-67.82,139.64-151.89,143.52C1472,424.19,1545,356.28,1545,274.25Z"/><path class="cls-2" d="M1218.09,208.78H126.72q-11,28.36-22,56.74H82L59.15,311.6l64.12,28.11h35.22l21.27-25.29H231l14.88,17.69h46.84l6.3-12.3H348.7l9.43-19.45h51.18l19.08,39.34h38.44l32.88-24.88H639.19l32.88,24.88h51.4l48.9-45.13H886.74l48.9,45.13h282.45Z"/><path class="cls-3" d="M1115.72,257.87,108,257.43q6.45-16.89,12.91-33.79l994.8-.06Z"/><path class="cls-1" d="M1115.72,233.23l-998.89,1.12q2-5.39,4.09-10.75l994.8,0Z"/><path class="cls-4" d="M1373.46,35.71c-146.75,0-265.72,106.8-265.72,238.54s119,238.53,265.72,238.53S1639.18,406,1639.18,274.25,1520.21,35.71,1373.46,35.71Zm8.19,392.37q-4.08.19-8.19.19h0v-308c94.12,0,171.57,69.53,171.57,154C1545,356.28,1472,424.19,1381.65,428.08Z"/><path class="cls-5" d="M1373.46,428.27q4.11,0,8.19-.19c-2.72.12-5.45.19-8.19.19Z"/></svg>